<svg aria-hidden="true" style="position:absolute;width:0;height:0;overflow:hidden" xmlns="http://www.w3.org/2000/svg"><defs><symbol id="search" viewBox="0 0 32 32"><path d="m31.008 27.231-7.58-6.447c-.784-.705-1.622-1.029-2.299-.998a11.954 11.954 0 0 0 2.87-7.787c0-6.627-5.373-12-12-12s-12 5.373-12 12 5.373 12 12 12c2.972 0 5.691-1.081 7.787-2.87-.031.677.293 1.515.998 2.299l6.447 7.58c1.104 1.226 2.907 1.33 4.007.23s.997-2.903-.23-4.007zM12 20a8 8 0 1 1 0-16 8 8 0 0 1 0 16z"/></symbol><symbol id="close-button" viewBox="0 0 32 32"><path d="M32 3.223 28.777 0 16 12.777 3.223 0 0 3.223 12.777 16 0 28.777 3.223 32 16 19.223 28.777 32 32 28.777 19.223 16 32 3.223z"/></symbol><symbol id="btn-search" viewBox ='0 0 1024 1024'><path fill="#E1F0FF" d="M214.8 459.3a245.2 245.2 0 1 0 490.4 0 245.2 245.2 0 1 0-490.4 0Z"/><path fill="#446EB1" d="M460 719c-69.4 0-134.6-27-183.6-76.1s-76.1-114.3-76.1-183.6c0-69.4 27-134.6 76.1-183.6s114.3-76.1 183.6-76.1c69.4 0 134.6 27 183.6 76.1s76.1 114.3 76.1 183.6c0 69.4-27 134.6-76.1 183.6S529.4 719 460 719zm0-490.4c-61.6 0-119.6 24-163.1 67.6-43.6 43.6-67.6 101.5-67.6 163.1s24 119.6 67.6 163.1C340.4 666 398.4 690 460 690s119.6-24 163.1-67.6c43.6-43.6 67.6-101.5 67.6-163.1s-24-119.6-67.6-163.1c-43.5-43.6-101.5-67.6-163.1-67.6z"/><path fill="#446EB1" d="M640.6 630.6c8.7-8.7 22.8-8.7 31.5 0L802 760.5c8.6 8.9 8.3 23-.5 31.5-8.6 8.3-22.3 8.3-31 0L640.6 662.1c-8.4-8.6-8.1-22.6 0-31.5z"/></symbol></defs></svg>
